<svg xmlns="http://www.w3.org/2000/svg" viewBox="0 0 236.52 166.57">
  <path d="M36,0C58.81,0,73.87,12,73.87,34.18c0,13.77-8.26,25-21.38,29.16l30.29,44.72-23.32,5.67L21.71,55.57h-.33v55.56L0,112.43V0ZM21.38,50.38h7c17.17,0,21.55-7.13,21.55-15.55,0-9.88-5.84-14.26-18.63-14.26H21.38Z" />
  <path d="M104,86.67c2,3.89,6.48,8.26,16,8.26,10.53,0,18-3.88,26.89-9.72l8.75,17.66a61.25,61.25,0,0,1-34.5,10.86c-24.79,0-45.69-19.44-45.69-43.74,0-24.14,20.74-43.75,45.69-43.75,15.87,0,31.26,9.08,39.2,25.44ZM95.9,72.09l38.56-23.33c-3.89-3.89-8.58-5.34-14.58-5.34-11.66,0-22.68,8.91-24.3,23.16A34.7,34.7,0,0,0,95.9,72.09Z" />
  <path d="M180.47,26.24l16.68,25.44L214,26.24l20.09,5.35-25,36.78,27.38,38.55-19.12,6.81L197.15,84.4l-20.89,29.33-18.64-6.81L186,68.37,161.51,31.59Z" />
  <path d="M.27,165.8V122.13H4.64v39.71H22.69v4Z" />
  <path d="M43.76,166.57c-11.92,0-23.08-9.68-23.08-22.37a22.94,22.94,0,0,1,23.08-22.83c12.68,0,23.13,10.15,23.13,22.6S56.44,166.57,43.76,166.57Zm-.06-41.25A18.93,18.93,0,0,0,25.05,144.2c0,9.86,8.56,18.41,18.71,18.41a18.65,18.65,0,1,0-.06-37.29Z" />
  <path d="M101.46,165.8,75.55,127.39h-.11V165.8H71.07V122.13H77l24.37,36.23h.12V122.13h4.36V165.8Z" />
  <path d="M110.72,165.8V122.13h12.92A27.07,27.07,0,0,1,138.09,126a21.85,21.85,0,0,1,9.5,18.23,21.3,21.3,0,0,1-6.31,15.05c-4.25,4.42-10.44,6.55-17.82,6.55Zm12.39-4c7.26,0,12.09-1.88,15.28-5.25A18.35,18.35,0,0,0,143.23,144a17.36,17.36,0,0,0-7-14.17c-3.07-2.35-7.73-3.71-13.34-3.71h-7.85v35.75Z" />
  <path d="M173.67,166.57c-11.92,0-23.07-9.68-23.07-22.37a22.94,22.94,0,0,1,23.07-22.83c12.69,0,23.13,10.15,23.13,22.6S186.36,166.57,173.67,166.57Zm-.06-41.25A18.92,18.92,0,0,0,155,144.2c0,9.86,8.55,18.41,18.7,18.41a18.65,18.65,0,1,0-.06-37.29Z" />
  <path d="M232,165.8l-25.9-38.41h-.12V165.8h-4.36V122.13h5.9l24.36,36.23H232V122.13h4.37V165.8Z" />
</svg>
